<svg version="1.2" xmlns="http://www.w3.org/2000/svg" viewBox="0 0 1920 1080" width="1920" height="1080">
	<style>
		.s0 { fill: #fff } 
	</style>
	<path id="Color Fill 1" class="s0" d="m-1.32 562.6c1.16-5.9 5.36 5.17 11 10 42.01 35.92 35.6 57.54 85.46 70.18 16.05 4.07 20.22 3.64 35.5-2.58 32.99-13.44 19.26-38.11 50.34-58.09 29.23-18.79 35.4-8.43 69.07-21.3 43.97-16.82 40.19-28.11 85.19-40.66 22.11-6.17 28.8-15.75 45.83-7.1 3.82 1.94 1.14 7.01 5.17 9.03 24.23 12.19 34.58 9.3 62.6 0 32.27-10.7 25.04-29.39 56.16-45.18 69.17-35.09 79.13-12.55 158.13-25.82 47.15-7.91 53.35-28.46 94.24-16.13 8.4 2.53 6.29 13.71 14.2 13.55 56.06-1.13 59.99-69.11 120.05-70.35 11.61-0.24 13.45 16.61 23.24 13.55 63.5-19.86 53.1-105.18 109.08-136.19 4.54-2.51 5.43 4.7 9.68 10.33 38.71 51.28 20.1 75.86 71.65 107.14 27.42 16.65 41.69-3.41 66.48 16.79 15.01 12.23 7.23 23.29 22.59 34.85 57.15 43.01 103.16 2.35 151.03 32.92 3.5 2.23-6.46 6.25-4.51 10.32 15.84 33.11 31.82 40.2 72.93 55.51 40.9 15.24 54.92-15.7 91.01 5.81 12.33 7.35 7.73 14.91 20.01 23.88 73.75 53.89 109.62 14.82 169.75 78.75 15.04 15.98 4.98 25.98 19.37 42.6 29.91 34.56 52.16 52.38 88.42 40.66 28.48-9.2 23.59-30.07 46.48-60.67 15.34-20.52 12.77-35.2 30.33-41.31 32.4-11.26 53.75 17.81 77.46 54.22 99.64 153.04 147.19 298.19 58.73 393.08-457.11 490.32-1611.67 540.55-2053.82-2.58-106.91-131.33-1.59-298.23 37.15-495.21z"/>
</svg>
