<svg version="1.2" xmlns="http://www.w3.org/2000/svg" viewBox="0 0 1920 1080" width="1920" height="1080">
	<style>
		.s0 { fill: #fff } 
	</style>
	<path id="Color Fill 2" class="s0" d="m-48 792c39.66-61.15 60.61-77.14 137.72-92.46 34.59-6.88 38.42-2.61 74.22 5.16 78.11 16.96 71.09 53.15 147.81 67.13 111.53 20.32 124.34 6.27 233.66-32.92 72.52-26 64.21-57.55 137.48-74.87 81.08-19.17 90.07 26.64 172.98 9.68 45.59-9.33 43.71-19.14 88.42-35.5 123.28-45.11 124.11-43.81 250.44-79.39 15.58-4.39 16.2-7.92 31.63-7.1 21.33 1.13 22.43 5.97 41.3 17.43 52.49 31.85 40.03 50.95 91.01 85.2 60.42 40.58 65.03 48.58 135.55 58.73 71.42 10.29 73.89-14.27 148.45-18.71 22.09-1.32 25.76-8.66 44.33-0.38 16.62 7.41 12.02 16.51 27.32 28.78 52.22 41.88 55.33 56.88 118.76 65.19 47.84 6.26 51.7-3.61 100.69-17.43 26.12-7.37 40.56-31.26 51.23-18.54 79.34 94.6 112.33 303.81 12 405-503.01 507.3-1494.93 524.75-2031 38-106.42-96.63-110.4-254.34-14-403z"/>
</svg>
