<svg version="1.2" xmlns="http://www.w3.org/2000/svg" viewBox="0 0 1920 1080" width="1920" height="1080">
	<style>
		.s0 { fill: #fff } 
	</style>
	<path id="Color Fill 3" class="s0" d="m-43 707c54.73-19.11 90.34 56.76 187 73 111.76 18.77 120.75 11.14 231.65-14.63 186.74-43.38 172.58-115.3 350.48-172.98 9.77-3.16 11.05 1.23 20.66 5.81 89.03 42.47 90.8 43.45 171.04 101.34 95.95 69.22 77.22 97.85 177.5 158.13 87.42 52.56 94.15 45.88 192.99 75.52 138.19 41.45 141.17 49.8 284.64 54.22 92.39 2.85 98.09-31.89 185.89-16.14 121.58 21.82 168.99 24.94 225.26 126.51 22.47 40.56 54.13 92.67 13.89 102.22-792.72 188.15-1538.05 519.08-2032-17-115.73-125.6-138.81-430.68-9-476z"/>
</svg>
