<svg version="1.2" xmlns="http://www.w3.org/2000/svg" viewBox="0 0 1920 1080" width="1920" height="1080">
	<style>
		.s0 { fill: #fff } 
	</style>
	<path id="Color Fill 4" class="s0" d="m-15 936c33.34-62.49 41.93-101.94 96-111 60.27-10.1 62.36 82.27 135.23 92.06 68.82 9.24 75.99-57.6 147.16-47.12 32.04 4.71 32.37 30.93 62.61 30.33 117.18-2.33 107.27-144.06 224.61-149.1 101.92-4.37 109.43 43.69 211.71 100.05 153.58 84.62 131.49 142.81 293.04 194.28 147.28 46.93 161.61 30.47 320.14 16.14 83.83-7.58 85.41-37.19 166.53-31.63 110.12 7.55 109.76 36.73 212.99 87.14 65.01 31.74 164.88 61.1 126.98 69.85-533.75 123.19-1470.6 373.3-2041-5-69.84-46.32-12.78-139.59 44-246z"/>
</svg>
